<svg width="230" height="33" viewBox="0 0 230 33" fill="none" xmlns="http://www.w3.org/2000/svg">
<path d="M32.9664 32.5852C32.2373 32.5852 31.5521 32.4709 30.9285 32.2422C30.3048 32.0136 29.7163 31.6356 29.1717 31.1168L6.44746 9.69817V31.8993H0V2.88395C0 1.90798 0.342575 1.18699 1.02773 0.712195C1.71288 0.237398 2.60884 0 3.70684 0C4.4974 0 5.15621 0.105509 5.67447 0.31653C6.19272 0.527551 6.61435 0.808913 6.95693 1.14303L29.8656 23.2475V0.685817H36.4536V29.7012C36.4536 30.7387 36.1374 31.4773 35.4962 31.9257C34.8549 32.3741 34.0204 32.5939 32.9839 32.5939L32.9664 32.5852Z" fill="white"/>
<path d="M91.2573 31.8996V6.68255H78.4502V0.686035H111.469V6.68255H98.2493V31.8996H91.2573Z" fill="white"/>
<path d="M126.754 31.8995C124.47 31.8995 122.564 31.7061 121.036 31.328C119.516 30.95 118.295 30.3345 117.381 29.4992C116.468 28.6639 115.818 27.5648 115.44 26.202C115.054 24.8479 114.869 23.1773 114.869 21.1902V11.3953C114.869 9.4434 115.062 7.78161 115.44 6.40998C115.818 5.03834 116.468 3.93048 117.381 3.09519C118.295 2.2599 119.516 1.64442 121.036 1.26634C122.564 0.88826 124.461 0.694824 126.754 0.694824H148.521V6.60341H126.754C125.744 6.60341 124.927 6.69134 124.286 6.85839C123.644 7.02545 123.135 7.28923 122.757 7.65852C122.379 8.0278 122.116 8.51139 121.984 9.12687C121.844 9.73356 121.782 10.4985 121.782 11.4129V13.5143H148.345V19.0536H121.782V21.2518C121.782 22.2014 121.852 22.9751 121.984 23.5818C122.116 24.1973 122.371 24.6809 122.74 25.0502C123.1 25.4194 123.609 25.6656 124.268 25.8063C124.927 25.947 125.753 26.0085 126.763 26.0085H148.529V31.9171H126.763L126.754 31.8995Z" fill="white"/>
<path d="M53.4062 31.8995C51.1224 31.8995 49.2163 31.7061 47.6878 31.328C46.1682 30.95 44.9472 30.3345 44.0337 29.4992C43.1202 28.6639 42.4702 27.5648 42.0924 26.202C41.7059 24.8479 41.5215 23.1773 41.5215 21.1902V11.3953C41.5215 9.4434 41.7147 7.78161 42.0924 6.40998C42.4702 5.03834 43.1202 3.93048 44.0337 3.09519C44.9472 2.2599 46.1682 1.64442 47.6878 1.26634C49.2163 0.88826 51.1136 0.694824 53.4062 0.694824H75.173V6.60341H53.4062C52.3961 6.60341 51.5792 6.69134 50.9379 6.85839C50.2967 7.02545 49.7872 7.28923 49.4095 7.65852C49.0318 8.0278 48.7683 8.51139 48.6365 9.12687C48.496 9.73356 48.4345 10.4985 48.4345 11.4129V13.5143H74.9973V19.0536H48.4345V21.2518C48.4345 22.2014 48.5048 22.9751 48.6365 23.5818C48.7683 24.1973 49.023 24.6809 49.3919 25.0502C49.7521 25.4194 50.2616 25.6656 50.9204 25.8063C51.5792 25.947 52.4049 26.0085 53.415 26.0085H75.1818V31.9171H53.415L53.4062 31.8995Z" fill="white"/>
<path d="M164.656 31.8996C162.372 31.8996 160.466 31.7061 158.938 31.328C157.418 30.95 156.197 30.3345 155.284 29.4992C154.37 28.6639 153.72 27.5648 153.342 26.202C152.956 24.8479 152.771 23.1774 152.771 21.1902V11.3953C152.771 9.4434 152.965 7.78161 153.342 6.40998C153.72 5.03834 154.37 3.93048 155.284 3.09519C156.197 2.2599 157.418 1.64442 158.938 1.26634C160.466 0.88826 162.364 0.694824 164.656 0.694824H176.497C178.816 0.694824 180.731 0.88826 182.259 1.26634C183.779 1.64442 185 2.2599 185.914 3.09519C186.827 3.93048 187.477 5.03834 187.855 6.40998C188.233 7.78161 188.426 9.4434 188.426 11.3953V21.1902C188.426 23.1774 188.233 24.8479 187.855 26.202C187.477 27.5648 186.827 28.6639 185.914 29.4992C185 30.3345 183.779 30.95 182.259 31.328C180.731 31.7149 178.816 31.8996 176.497 31.8996H164.656ZM181.486 11.7119C181.486 10.7359 181.399 9.92699 181.232 9.28514C181.065 8.64328 180.784 8.12452 180.388 7.72886C179.993 7.33319 179.449 7.06062 178.763 6.90236C178.078 6.75288 177.235 6.67375 176.225 6.67375H164.972C163.874 6.67375 162.987 6.75288 162.293 6.90236C161.608 7.05183 161.064 7.33319 160.668 7.72886C160.273 8.12452 160.001 8.64328 159.869 9.28514C159.728 9.92699 159.667 10.7359 159.667 11.7119V20.9089C159.667 21.9112 159.737 22.7465 159.869 23.406C160.001 24.0654 160.273 24.5842 160.668 24.9622C161.064 25.3403 161.608 25.6041 162.293 25.7448C162.978 25.8855 163.874 25.947 164.972 25.947H176.225C177.235 25.947 178.078 25.8767 178.763 25.7448C179.449 25.6041 179.993 25.3491 180.388 24.9622C180.784 24.5842 181.065 24.0654 181.232 23.406C181.399 22.7465 181.486 21.92 181.486 20.9089V11.7119Z" fill="white"/>
<path d="M226.53 32.5852C225.792 32.5852 225.116 32.4709 224.492 32.2422C223.868 32.0136 223.28 31.6356 222.726 31.1168L200.002 9.69817V31.8993H193.555V2.88395C193.555 1.90798 193.897 1.18699 194.582 0.712195C195.268 0.237398 196.164 0 197.262 0C198.052 0 198.711 0.105509 199.229 0.31653C199.747 0.527551 200.178 0.808913 200.512 1.14303L223.42 23.2475V0.685817H230V29.7012C230 30.7387 229.683 31.4773 229.042 31.9257C228.401 32.3741 227.566 32.5939 226.53 32.5939V32.5852Z" fill="white"/>
</svg>
